<?xml version="1.0" standalone="no"?>
<!DOCTYPE svg PUBLIC "-//W3C//DTD SVG 20010904//EN"
 "http://www.w3.org/TR/2001/REC-SVG-20010904/DTD/svg10.dtd">
<svg version="1.0" xmlns="http://www.w3.org/2000/svg"
 width="1024.000000pt" height="1024.000000pt" viewBox="0 0 1024.000000 1024.000000"
 preserveAspectRatio="xMidYMid meet">

<g transform="translate(0.000000,1024.000000) scale(0.100000,-0.100000)"
fill="#000000" stroke="none">
<path d="M9465 9520 c-8 -13 14 -52 26 -45 15 10 11 55 -5 55 -8 0 -18 -4 -21
-10z"/>
<path d="M8404 9504 c3 -9 6 -18 6 -20 0 -2 7 -4 15 -4 8 0 15 9 15 20 0 14
-7 20 -21 20 -15 0 -19 -4 -15 -16z"/>
<path d="M8677 9500 c6 -24 26 -21 31 3 2 11 -3 17 -16 17 -15 0 -19 -5 -15
-20z"/>
<path d="M8920 9506 c0 -18 27 -39 40 -31 5 3 10 15 10 26 0 14 -7 19 -25 19
-15 0 -25 -6 -25 -14z"/>
<path d="M9187 9500 c7 -25 36 -23 41 3 3 12 -3 17 -21 17 -20 0 -24 -4 -20
-20z"/>
<path d="M4840 9403 c-97 -8 -371 -55 -481 -82 -388 -96 -800 -294 -1075 -517
-142 -114 -300 -285 -386 -415 -80 -120 -92 -148 -133 -307 -60 -240 -58 -198
-57 -839 1 -678 -5 -627 99 -818 156 -290 360 -479 773 -717 149 -87 388 -196
535 -246 33 -11 139 -47 236 -80 97 -33 203 -63 235 -67 33 -4 74 -14 93 -21
18 -8 46 -14 62 -14 15 0 39 -4 52 -9 13 -5 131 -15 263 -21 131 -6 338 -17
459 -24 l220 -12 -75 -11 c-221 -35 -748 -42 -935 -13 -257 40 -290 47 -531
116 -173 49 -240 74 -404 148 -190 87 -275 137 -450 265 -229 167 -405 354
-533 566 -44 73 -59 90 -78 90 l-24 0 -3 -320 c-2 -289 0 -327 17 -396 35
-140 136 -310 277 -468 147 -163 516 -428 697 -498 23 -9 47 -20 52 -24 34
-25 350 -149 380 -149 8 0 15 -3 15 -8 0 -16 382 -125 500 -142 47 -7 126 -19
175 -27 50 -8 106 -17 125 -19 19 -3 51 -9 70 -14 19 -6 70 -10 113 -10 43 0
133 -5 200 -11 129 -12 322 -2 532 27 55 7 120 16 145 19 25 4 54 10 65 15 11
4 47 16 80 25 33 9 78 23 100 30 22 8 74 20 115 26 41 7 86 18 100 25 14 7 44
15 65 19 22 4 47 13 55 20 8 7 33 18 55 25 22 7 57 23 77 36 21 13 47 24 58
24 27 0 90 32 114 59 11 12 25 21 33 21 8 0 25 11 39 25 14 14 33 25 43 25 10
0 24 7 31 15 7 8 18 15 24 15 26 0 166 132 215 203 18 26 41 53 52 60 10 6 19
19 19 29 0 9 9 23 19 30 11 8 21 25 23 39 2 13 11 38 20 54 9 17 17 63 20 103
3 64 2 73 -12 69 -12 -3 -3 19 27 72 52 91 98 208 112 287 12 61 16 650 5 678
-3 9 -17 16 -30 16 -17 0 -30 -12 -50 -47 -75 -130 -158 -243 -178 -243 -6 0
0 7 12 16 13 9 21 22 18 30 -3 8 0 13 6 11 5 -1 19 13 30 32 15 26 17 40 10
55 -9 20 -10 20 -17 -6 -4 -16 -12 -28 -17 -28 -6 0 -16 -7 -23 -17 -7 -9 -14
-12 -17 -7 -4 5 19 43 49 84 56 76 170 299 194 380 11 36 13 157 11 605 -2
308 -7 596 -13 640 -37 292 -187 595 -398 805 -53 53 -132 123 -176 156 -384
290 -969 508 -1486 554 -106 9 -536 11 -639 3z m120 -153 c-19 -13 -30 -13
-30 0 0 6 10 10 23 10 18 0 19 -2 7 -10z m387 -29 c37 -6 109 -11 158 -12 50
-1 130 -9 180 -16 49 -8 98 -12 109 -9 11 3 52 -3 91 -14 225 -60 329 -92 364
-110 22 -11 45 -20 50 -20 32 0 319 -143 417 -208 377 -249 598 -559 670 -940
25 -133 15 -370 -20 -475 -62 -186 -159 -344 -312 -511 -144 -157 -239 -244
-320 -293 -273 -166 -432 -250 -537 -283 -21 -6 -34 -16 -31 -22 4 -7 -2 -8
-17 -3 -13 4 -21 4 -17 0 9 -9 -263 -81 -482 -127 l-155 -33 -350 0 c-375 0
-381 1 -655 61 -188 41 -549 168 -706 247 -219 111 -427 260 -569 408 -132
139 -210 264 -295 474 -60 151 -76 417 -36 605 33 153 164 437 191 413 4 -5 5
-2 1 5 -5 8 10 34 40 70 26 31 50 59 51 62 2 2 9 -2 14 -10 8 -12 9 -11 5 6
-4 14 3 29 24 49 16 16 30 24 30 19 0 -6 -3 -14 -7 -18 -5 -4 -8 -11 -8 -14
-1 -19 -40 -62 -51 -58 -9 3 -14 -2 -14 -14 0 -28 13 -25 52 13 18 18 60 52
93 77 33 24 66 51 73 59 7 9 16 16 21 16 13 0 131 77 131 86 0 5 8 17 18 27
135 128 139 131 181 135 23 2 55 13 71 25 16 12 34 22 41 22 13 0 58 19 164
70 44 21 92 42 107 45 15 4 29 13 32 20 2 7 20 16 38 20 18 4 38 11 44 16 17
14 295 79 337 79 21 0 57 4 80 9 23 5 78 15 122 22 44 6 89 16 99 22 11 5 42
13 70 17 62 10 318 4 413 -9z m-1120 -107 c-3 -3 -12 -4 -19 -1 -8 3 -5 6 6 6
11 1 17 -2 13 -5z m-541 -239 c-8 -8 -19 -15 -24 -15 -5 0 -29 -15 -53 -32
-56 -42 -90 -61 -96 -55 -6 7 159 116 175 117 10 0 10 -4 -2 -15z m3724 -2183
c-26 -104 -118 -255 -262 -427 -140 -167 -337 -321 -556 -433 -97 -50 -419
-181 -542 -220 -365 -117 -729 -167 -1043 -144 -465 34 -792 122 -1275 341
-290 132 -602 381 -741 590 -137 207 -151 255 -151 518 0 106 3 193 8 193 4 0
18 -26 32 -58 25 -59 54 -101 143 -212 79 -98 149 -165 290 -275 187 -147 344
-234 619 -344 297 -118 496 -172 828 -223 124 -19 185 -22 415 -22 205 1 290
4 355 17 47 9 137 25 200 37 135 24 365 88 500 137 194 71 310 128 516 250
127 76 361 273 460 387 60 70 158 217 187 279 l22 47 3 -197 c2 -116 -2 -216
-8 -241z m-3425 -350 c-3 -3 -11 0 -18 7 -9 10 -8 11 6 5 10 -3 15 -9 12 -12z
m105 -32 c8 -5 11 -10 5 -10 -5 0 -17 5 -25 10 -8 5 -10 10 -5 10 6 0 17 -5
25 -10z m357 -116 c-3 -3 -12 -4 -19 -1 -8 3 -5 6 6 6 11 1 17 -2 13 -5z m46
-11 c-7 -2 -19 -2 -25 0 -7 3 -2 5 12 5 14 0 19 -2 13 -5z m60 -10 c-7 -2 -19
-2 -25 0 -7 3 -2 5 12 5 14 0 19 -2 13 -5z m54 -9 c-3 -3 -12 -4 -19 -1 -8 3
-5 6 6 6 11 1 17 -2 13 -5z m136 -21 c-7 -2 -19 -2 -25 0 -7 3 -2 5 12 5 14 0
19 -2 13 -5z m2535 -88 c-23 -27 -34 -33 -22 -12 14 23 26 37 35 37 5 0 -1
-11 -13 -25z m-4320 -187 c71 -89 139 -151 281 -258 209 -157 369 -246 686
-378 106 -45 241 -84 549 -158 104 -25 226 -43 396 -59 255 -23 353 -20 833
25 118 11 167 22 352 78 55 17 143 42 195 57 63 17 163 59 296 125 313 155
440 245 643 456 74 77 151 165 173 197 21 31 44 57 50 57 7 0 9 -47 6 -152
l-4 -153 -43 -89 c-32 -68 -45 -86 -54 -77 -9 9 -9 16 1 29 56 79 65 105 79
219 8 64 13 138 11 165 l-3 48 -49 -80 c-26 -44 -52 -78 -56 -75 -5 3 -31 -23
-58 -58 -82 -102 -281 -276 -413 -360 -179 -114 -465 -247 -605 -282 -38 -9
-109 -30 -159 -45 -88 -29 -164 -48 -215 -55 -14 -2 -74 -10 -135 -19 -60 -9
-157 -20 -215 -26 -58 -5 -161 -14 -229 -21 -224 -21 -614 24 -976 111 -216
53 -276 72 -460 148 -191 79 -291 131 -424 220 -237 159 -398 301 -489 431
l-52 74 0 -41 c0 -55 38 -132 106 -218 66 -82 91 -126 39 -69 -20 22 -63 81
-96 130 l-61 90 5 -60 c8 -95 39 -160 140 -295 95 -126 207 -241 307 -316 30
-22 92 -68 136 -101 215 -160 718 -353 1094 -422 320 -58 687 -78 897 -51 500
67 814 155 1188 335 242 116 524 347 637 523 23 34 43 60 45 58 8 -8 -18 -48
-102 -156 -84 -108 -223 -230 -385 -340 -64 -43 -251 -140 -300 -155 -14 -4
-46 -18 -72 -31 -156 -79 -485 -172 -754 -213 -343 -54 -358 -55 -551 -54
-285 1 -424 17 -738 87 -213 48 -571 173 -751 264 -163 82 -407 251 -537 371
-93 86 -203 259 -247 386 -16 48 -20 84 -20 204 l0 146 29 -52 c16 -29 52 -81
79 -115z m632 -14 c0 -2 -13 2 -30 11 -16 9 -30 18 -30 21 0 2 14 -2 30 -11
17 -9 30 -18 30 -21z m3696 -52 c-17 -16 -18 -16 -5 5 7 12 15 20 18 17 3 -2
-3 -12 -13 -22z m-4076 -7 c13 -14 21 -25 18 -25 -2 0 -15 11 -28 25 -13 14
-21 25 -18 25 2 0 15 -11 28 -25z m571 -30 c63 -30 110 -54 104 -55 -11 0
-233 108 -224 109 3 1 57 -24 120 -54z m3239 31 c0 -2 -8 -10 -17 -17 -16 -13
-17 -12 -4 4 13 16 21 21 21 13z m-3713 -78 c3 -7 -8 -2 -25 10 -17 13 -35 28
-39 34 -3 7 8 2 25 -10 17 -13 35 -28 39 -34z m3933 8 c0 -2 -8 -10 -17 -17
-16 -13 -17 -12 -4 4 13 16 21 21 21 13z m-2985 -146 c13 -6 15 -9 5 -9 -8 0
-22 4 -30 9 -18 12 -2 12 25 0z m-1103 -14 c3 2 21 -11 39 -31 160 -172 669
-450 1049 -573 157 -50 201 -59 380 -72 202 -14 332 -32 300 -40 -45 -12 169
-23 325 -17 244 10 608 61 750 106 51 16 248 88 290 106 22 9 72 28 110 42
119 43 333 157 445 237 25 18 70 50 100 71 30 21 71 50 90 64 24 17 30 20 20
7 -23 -29 -161 -131 -273 -203 -113 -71 -325 -178 -432 -218 -256 -94 -427
-148 -540 -170 -338 -63 -796 -78 -1085 -36 -224 33 -365 65 -535 122 -342
115 -624 254 -843 417 -123 92 -222 178 -222 194 0 7 5 6 13 -1 8 -6 16 -8 19
-5z m651 -129 c47 -19 96 -43 109 -52 28 -21 22 -19 -112 38 -119 50 -235 108
-265 132 -11 9 25 -7 81 -34 56 -27 140 -65 187 -84z m604 97 c-3 -3 -12 -4
-19 -1 -8 3 -5 6 6 6 11 1 17 -2 13 -5z m40 -10 c-3 -3 -12 -4 -19 -1 -8 3 -5
6 6 6 11 1 17 -2 13 -5z m156 -31 c-7 -2 -21 -2 -30 0 -10 3 -4 5 12 5 17 0
24 -2 18 -5z m70 -10 c-7 -2 -21 -2 -30 0 -10 3 -4 5 12 5 17 0 24 -2 18 -5z
m-1320 -223 c187 -142 373 -237 697 -358 588 -220 1310 -250 1955 -82 147 38
223 64 436 153 168 70 346 174 539 316 30 22 32 22 16 4 -25 -30 -292 -209
-389 -262 -136 -74 -431 -186 -611 -232 -206 -53 -364 -79 -640 -104 -377 -35
-863 32 -1274 176 -232 82 -464 188 -595 273 -122 79 -319 239 -343 278 -4 7
14 -6 42 -30 27 -24 102 -83 167 -132z m722 65 c39 -17 21 -18 -25 0 -19 7
-28 14 -20 14 8 0 29 -6 45 -14z m110 -37 c13 -5 9 -6 -15 -2 -19 4 -42 10
-50 15 -18 11 34 1 65 -13z m52 -14 c-3 -3 -12 -4 -19 -1 -8 3 -5 6 6 6 11 1
17 -2 13 -5z m1733 -4 c0 -5 -10 -10 -22 -9 -22 0 -22 1 -3 9 11 5 21 9 23 9
1 1 2 -3 2 -9z m-1649 -16 c30 -9 101 -27 159 -39 58 -13 96 -24 85 -24 -39
-2 -342 75 -309 78 6 1 35 -6 65 -15z m1579 -4 c-14 -4 -38 -8 -55 -8 -29 0
-29 0 -5 8 14 4 39 8 55 8 29 0 29 0 5 -8z m-143 -56 c-3 -3 -12 -4 -19 -1 -8
3 -5 6 6 6 11 1 17 -2 13 -5z m-1124 -11 c-7 -2 -19 -2 -25 0 -7 3 -2 5 12 5
14 0 19 -2 13 -5z m1070 0 c-7 -2 -19 -2 -25 0 -7 3 -2 5 12 5 14 0 19 -2 13
-5z m-1000 -10 c-7 -2 -19 -2 -25 0 -7 3 -2 5 12 5 14 0 19 -2 13 -5z m924 1
c-3 -3 -12 -4 -19 -1 -8 3 -5 6 6 6 11 1 17 -2 13 -5z m-850 -10 c-3 -3 -12
-4 -19 -1 -8 3 -5 6 6 6 11 1 17 -2 13 -5z m160 -11 c-20 -2 -52 -2 -70 0 -17
2 0 4 38 4 39 0 53 -2 32 -4z m521 0 c-10 -2 -28 -2 -40 0 -13 2 -5 4 17 4 22
1 32 -1 23 -4z m-180 -10 c-54 -2 -142 -2 -195 0 -54 1 -10 3 97 3 107 0 151
-2 98 -3z m-505 -230 c-18 -2 -48 -2 -65 0 -18 2 -4 4 32 4 36 0 50 -2 33 -4z
m84 -9 c-3 -3 -12 -4 -19 -1 -8 3 -5 6 6 6 11 1 17 -2 13 -5z m528 -33 c25 -8
16 -10 -50 -12 -109 -4 -342 2 -389 10 -21 3 63 7 186 9 122 1 237 -2 253 -7z
m132 3 c-3 -3 -12 -4 -19 -1 -8 3 -5 6 6 6 11 1 17 -2 13 -5z m-279 -331 c-10
-2 -26 -2 -35 0 -10 3 -2 5 17 5 19 0 27 -2 18 -5z"/>
<path d="M5075 9175 c-22 -8 -52 -29 -67 -47 -67 -80 -59 -150 23 -220 l51
-43 -5 -155 c-3 -85 -11 -209 -17 -275 -6 -66 -12 -197 -13 -291 l-2 -172 68
-68 c38 -38 76 -82 85 -99 14 -26 16 -108 17 -697 1 -368 -2 -668 -7 -668 -14
0 -9 -54 8 -78 8 -12 21 -22 29 -22 7 0 27 -12 44 -26 25 -21 34 -23 51 -14
28 15 26 64 -2 92 l-23 23 -5 690 c-4 471 -3 698 5 714 5 13 39 49 75 80 36
31 59 48 51 39 -7 -10 -10 -18 -5 -19 38 -5 53 -1 84 20 41 29 89 81 90 98 0
7 7 16 16 21 11 6 14 16 9 31 -6 21 -8 21 -32 6 -24 -16 -24 -16 -14 4 10 18
40 41 54 41 3 0 3 -10 -1 -22 -4 -18 -2 -20 14 -13 10 4 29 10 42 13 14 2 32
21 45 45 39 70 43 76 73 99 16 12 33 28 37 35 4 7 13 13 19 13 14 0 166 155
185 189 7 12 11 27 8 31 -3 5 16 27 41 49 l47 41 23 -25 c27 -29 65 -32 108
-10 15 8 32 15 37 15 34 0 89 90 89 146 0 29 -8 44 -38 74 -101 102 -292 39
-292 -96 0 -33 -80 -116 -251 -264 -64 -55 -170 -156 -237 -225 -67 -69 -125
-125 -129 -125 -17 0 -32 17 -52 62 -17 38 -22 72 -25 185 -3 76 -8 146 -12
157 -7 17 -6 17 26 1 42 -22 99 -21 140 0 19 10 29 12 25 5 -4 -7 -23 -18 -41
-26 -57 -24 -42 -37 33 -30 94 9 105 14 129 50 l21 33 -32 26 c-26 21 -34 35
-39 76 -11 82 -75 141 -152 141 -122 0 -183 -74 -151 -182 9 -27 11 -52 6 -59
-5 -8 -9 -48 -9 -89 0 -52 -3 -70 -10 -60 -9 13 -10 13 -10 0 0 -8 -7 -59 -15
-113 -10 -69 -11 -106 -4 -127 12 -32 48 -60 79 -60 11 0 20 -2 20 -4 0 -17
-78 -130 -115 -166 -43 -42 -46 -43 -71 -30 -25 14 -26 17 -19 80 9 90 7 144
-5 148 -5 2 -11 31 -12 65 -1 35 -5 8 -8 -63 l-6 -125 -2 170 c-2 149 4 283
24 523 6 67 21 89 112 162 24 20 30 31 25 48 -5 19 -8 20 -21 10 -9 -7 -6 0 6
16 41 53 26 131 -41 209 -28 34 -38 39 -87 43 -35 3 -70 -1 -95 -11z m115
-135 c47 -47 -45 -86 -99 -42 -20 16 -21 18 -6 40 21 29 77 30 105 2z m1108
-273 c24 -29 -52 -71 -88 -48 -12 8 -11 14 10 35 25 28 61 34 78 13z m-784
-106 c17 -19 17 -21 -8 -46 -16 -16 -33 -24 -42 -21 -9 3 -20 6 -25 6 -14 0
-11 33 7 58 19 27 45 28 68 3z"/>
<path d="M5693 9041 c-78 -20 -123 -77 -123 -155 0 -46 3 -53 49 -97 27 -26
63 -50 80 -54 17 -4 31 -13 31 -21 0 -8 5 -14 10 -14 6 0 10 -13 10 -29 0 -16
5 -42 10 -57 10 -25 11 -26 29 -10 11 10 25 31 31 47 9 20 19 29 35 29 18 0
24 7 29 36 4 19 10 43 13 51 5 13 2 15 -13 9 -16 -6 -16 -4 4 17 16 17 22 35
22 72 0 115 -108 203 -217 176z m92 -123 c30 -13 33 -44 5 -53 -11 -3 -20 -10
-20 -15 0 -12 -62 7 -72 22 -11 18 -10 25 8 42 18 19 44 20 79 4z"/>
<path d="M4570 9001 c-74 -23 -120 -69 -120 -120 0 -35 31 -99 56 -115 13 -9
46 -19 73 -24 49 -7 50 -8 83 -72 22 -42 46 -73 72 -90 21 -15 42 -33 47 -42
4 -8 11 -142 15 -298 8 -322 15 -303 -78 -219 l-48 42 0 78 c0 42 -3 84 -6 93
-3 8 -52 52 -107 98 -56 45 -130 106 -164 136 -77 67 -81 90 -25 145 l39 38
64 -61 c63 -60 151 -120 177 -120 23 0 3 19 -41 38 -55 25 -79 53 -121 139
-19 39 -40 74 -45 78 -6 3 -18 30 -26 60 -23 79 -44 100 -126 125 -140 44
-228 -2 -253 -129 -5 -26 -2 -37 11 -47 15 -11 16 -15 4 -23 -11 -7 -10 -15 8
-45 12 -20 34 -45 49 -56 15 -12 41 -38 57 -59 31 -40 129 -128 278 -249 128
-105 137 -117 137 -194 0 -73 14 -99 66 -126 33 -17 178 -141 314 -269 l55
-52 -3 -593 c-2 -326 -6 -602 -9 -613 -3 -11 -10 -23 -15 -26 -21 -14 43 -99
74 -99 10 0 18 -4 18 -9 0 -6 16 -22 35 -37 67 -51 111 -7 68 67 -10 17 -29
33 -43 36 -14 3 -29 11 -33 17 -4 6 -7 300 -5 653 l3 643 -60 57 c-33 32 -81
81 -106 109 l-45 50 -2 180 c-1 98 -5 241 -8 317 -6 127 -5 139 12 155 11 9
26 17 34 17 12 0 16 15 18 66 2 54 -1 71 -20 99 -30 43 -67 70 -109 79 -29 6
-34 11 -31 32 5 40 -38 111 -78 131 -36 19 -96 22 -140 9z m100 -83 c0 -7 -9
-28 -20 -45 -15 -25 -27 -33 -48 -33 -33 0 -67 32 -59 54 11 27 127 49 127 24z
m-300 -68 c12 -17 20 -38 18 -48 -2 -12 -12 -4 -36 31 -24 33 -29 47 -18 47 8
0 24 -14 36 -30z m-99 -56 c28 -34 -50 -112 -88 -88 -10 6 -22 23 -28 39 -8
23 -6 30 14 46 28 23 84 25 102 3z"/>
<path d="M3871 8751 c-17 -11 -9 -72 14 -107 41 -63 114 15 79 84 -12 26 -21
32 -47 32 -18 0 -38 -4 -46 -9z"/>
<path d="M3643 8660 c-47 -11 -110 -65 -123 -106 -12 -36 -7 -93 12 -127 5
-10 30 -31 55 -47 25 -16 64 -55 87 -87 51 -69 71 -87 87 -77 7 4 5 -3 -4 -17
-11 -15 -17 -43 -17 -81 0 -52 3 -62 36 -97 19 -22 51 -45 70 -51 47 -16 218
-7 266 14 20 8 51 17 68 18 17 1 34 6 36 10 3 4 16 8 30 8 46 0 238 -179 279
-259 32 -64 133 -172 206 -222 32 -21 70 -54 86 -74 27 -32 31 -34 43 -20 20
24 13 92 -12 125 -13 16 -49 49 -80 75 -54 44 -143 146 -181 207 -28 45 -314
342 -407 421 -47 42 -120 98 -161 125 -75 50 -158 132 -194 193 -34 56 -112
86 -182 69z m78 -110 c43 -23 8 -92 -47 -92 -30 0 -44 16 -44 53 0 45 44 64
91 39z m282 -247 c94 -77 237 -212 237 -225 0 -10 -132 0 -163 11 -10 4 -29
33 -42 65 -13 32 -32 64 -42 71 -24 18 -94 29 -144 22 -39 -5 -40 -4 -69 46
-28 49 -31 79 -7 58 8 -6 30 -4 62 4 28 8 58 14 68 14 10 1 55 -29 100 -66z
m-70 -187 c-2 -28 -29 -58 -48 -52 -15 4 -29 51 -22 70 5 12 16 16 39 14 29
-3 33 -6 31 -32z"/>
<path d="M6520 8655 c-51 -16 -87 -45 -100 -81 -9 -22 -107 -104 -200 -167
-24 -16 -38 -32 -34 -39 4 -7 3 -8 -4 -4 -7 4 -12 1 -12 -6 0 -18 -185 -196
-194 -187 -3 2 13 24 35 48 57 64 38 64 -26 1 -52 -51 -71 -80 -42 -64 6 4 -6
-12 -28 -35 -49 -51 -61 -55 -14 -3 l34 37 -42 -39 c-23 -22 -39 -44 -36 -49
3 -6 2 -7 -4 -4 -9 6 -253 -235 -253 -250 0 -3 -25 -38 -55 -78 -56 -73 -66
-95 -41 -95 21 0 92 27 122 47 15 10 34 18 42 18 9 0 30 20 48 45 17 25 37 44
43 43 6 -2 10 2 8 9 -1 7 3 12 8 13 6 0 16 4 23 9 11 7 12 4 4 -11 -12 -21
-78 -90 -162 -169 -30 -29 -77 -77 -105 -107 -34 -38 -56 -54 -67 -51 -13 4
-19 -4 -24 -33 -4 -21 -4 -251 -1 -512 6 -429 6 -476 -9 -492 -36 -40 28 -115
75 -90 15 9 20 7 25 -12 4 -17 8 -19 18 -9 10 10 9 26 -5 80 -15 57 -17 118
-17 408 0 313 2 347 21 424 16 63 19 88 11 101 -19 30 14 110 47 117 18 4 106
92 145 145 15 20 47 52 71 70 24 17 44 37 45 43 0 6 9 19 21 30 23 21 21 21
369 9 211 -7 228 -6 275 13 42 16 75 20 208 20 99 1 157 -3 157 -9 0 -21 -61
-98 -92 -117 -31 -19 -54 -20 -455 -24 l-422 -3 -36 -35 c-20 -19 -89 -95
-152 -168 -90 -103 -116 -139 -115 -160 1 -15 6 -72 11 -127 13 -142 14 -682
1 -706 -20 -37 35 -88 82 -75 49 13 52 19 37 77 -9 39 -13 138 -13 354 0 296
3 375 15 375 4 0 22 22 40 50 19 27 40 50 47 50 22 0 62 -32 79 -63 l15 -31
17 50 c15 46 19 50 61 60 25 6 199 14 395 17 l350 6 -50 -53 c-61 -65 -69 -69
-175 -92 -73 -16 -123 -19 -345 -17 l-260 3 -30 -25 -30 -25 -7 -242 c-4 -134
-7 -252 -8 -262 -3 -48 104 -97 158 -73 50 22 32 111 -29 142 l-31 17 3 174
c4 165 5 174 24 176 74 5 216 3 195 -3 -14 -5 12 -6 60 -4 47 3 161 9 255 14
l169 8 20 -24 c13 -18 25 -23 40 -18 11 3 60 10 109 14 99 9 129 27 148 91 23
75 -30 169 -104 186 -39 8 -72 30 -59 38 11 6 10 17 -2 54 l-7 22 -438 0 -437
0 -42 -31 c-23 -17 -42 -34 -42 -39 0 -4 -11 -15 -25 -24 -35 -23 -33 0 3 39
15 17 47 54 71 83 24 29 53 58 65 65 14 8 143 15 421 22 220 6 412 8 428 6 23
-3 27 -8 27 -36 0 -40 18 -94 39 -119 38 -45 138 -61 215 -34 31 11 41 22 52
54 8 21 14 53 14 69 0 42 -32 108 -66 134 -26 21 -37 23 -112 19 -71 -4 -82
-2 -80 11 2 8 15 22 30 30 23 13 32 13 63 2 102 -37 197 -20 235 41 41 68 9
173 -66 215 -53 31 -144 31 -199 2 -37 -20 -53 -22 -239 -20 -192 1 -200 1
-241 -22 l-43 -24 -266 10 c-146 6 -266 13 -266 16 0 4 14 23 31 43 35 44 66
54 195 63 81 6 98 4 139 -14 26 -12 63 -21 82 -21 43 0 138 27 155 44 7 6 37
13 67 14 66 3 105 20 109 50 3 20 0 22 -51 22 -80 0 -117 9 -117 30 0 9 -13
35 -29 58 -33 45 -64 58 -156 65 -89 7 -119 -22 -131 -127 l-7 -56 -42 0 c-44
0 -67 16 -79 55 -4 15 8 33 53 75 101 95 125 115 117 100 -4 -8 2 -3 14 12 12
16 27 25 35 21 8 -3 15 0 15 7 0 6 4 8 10 5 14 -9 86 42 99 71 6 14 8 31 4 37
-4 7 9 -4 29 -24 20 -20 50 -43 67 -50 36 -16 37 -19 12 -50 -10 -13 -24 -35
-31 -49 -10 -22 -8 -21 18 7 25 27 38 32 74 32 23 0 59 2 79 5 l35 4 -4 -83
c-2 -46 -2 -94 1 -107 4 -13 36 -45 73 -72 61 -45 69 -48 109 -43 75 11 112
35 134 88 27 61 26 112 -1 160 -32 57 -85 90 -157 96 -49 5 -66 2 -94 -15
l-34 -20 -11 34 c-8 25 -7 36 2 42 50 30 60 112 21 178 -45 77 -134 108 -225
79z m112 -112 c23 -21 23 -32 -4 -60 -51 -54 -122 3 -71 59 20 22 51 23 75 1z
m280 -334 c22 -26 9 -56 -27 -65 -36 -9 -55 11 -55 58 0 40 0 40 33 34 17 -3
40 -15 49 -27z m-528 -81 c13 -19 14 -25 2 -43 -7 -11 -24 -20 -37 -20 -19 0
-25 6 -27 28 -2 16 -1 35 2 43 8 21 43 17 60 -8z m738 -315 c26 -23 23 -31
-18 -42 -57 -16 -95 14 -62 47 17 17 58 15 80 -5z m-78 -311 c15 -18 15 -20
-3 -36 -25 -22 -75 -18 -79 7 -8 43 50 63 82 29z m-173 -312 c25 -14 24 -35
-1 -60 -22 -22 -32 -20 -80 20 -24 20 -25 21 -6 35 23 17 59 19 87 5z"/>
<path d="M3137 8427 c-11 -29 -9 -43 4 -30 6 6 9 19 7 29 -3 18 -4 18 -11 1z"/>
<path d="M3099 8373 c-13 -16 -12 -17 4 -4 9 7 17 15 17 17 0 8 -8 3 -21 -13z"/>
<path d="M3295 8332 c-98 -46 -123 -134 -65 -226 34 -53 76 -76 141 -76 24 0
57 -5 75 -12 37 -13 76 -1 121 38 16 13 35 24 43 24 9 1 1 13 -21 33 -28 24
-38 42 -42 73 -7 58 -34 111 -70 136 -43 30 -129 35 -182 10z m137 -104 c12
-20 9 -45 -8 -62 -19 -20 -87 -21 -103 -2 -15 18 -4 63 18 76 20 13 82 5 93
-12z"/>
<path d="M3094 7926 c-67 -31 -94 -66 -94 -123 0 -24 7 -57 15 -74 21 -39 91
-89 126 -89 l28 0 -44 -44 c-107 -107 -54 -238 115 -280 68 -17 88 -10 122 42
28 45 30 51 25 129 -5 82 -5 82 17 70 44 -25 113 -32 275 -27 91 3 279 3 416
0 l250 -5 128 -128 c70 -70 127 -132 127 -137 0 -6 -7 -10 -15 -10 -13 0 -15
-22 -16 -137 0 -76 -2 -267 -4 -425 l-4 -287 26 -21 c14 -11 32 -20 39 -20 8
0 23 -9 34 -20 28 -28 40 -25 40 11 0 26 -3 29 -21 24 -15 -5 -19 -4 -15 4 4
6 7 206 6 444 0 369 2 435 14 452 9 11 16 25 16 32 0 19 -57 80 -130 138 -36
29 -92 79 -125 110 -102 98 -53 90 -540 93 -451 4 -471 6 -489 49 -6 11 -22
28 -38 38 -21 12 -28 24 -28 48 l0 32 95 -6 c52 -4 102 -6 112 -4 10 2 44 4
76 4 36 1 56 5 52 11 -14 22 22 8 48 -19 46 -47 99 -54 345 -48 227 7 332 15
332 27 0 4 -18 28 -41 54 l-41 46 -106 0 c-59 0 -177 -5 -263 -12 l-156 -11
-46 33 c-38 27 -51 32 -79 26 -59 -13 -388 -18 -388 -7 0 18 -57 41 -102 41
-24 0 -65 -11 -94 -24z m127 -105 c22 -18 23 -21 8 -36 -21 -21 -85 -31 -103
-16 -27 23 7 71 50 71 12 0 32 -9 45 -19z m50 -323 c5 -54 -9 -72 -49 -63 -33
7 -49 40 -30 62 14 17 78 17 79 1z"/>
<path d="M5406 7893 c-6 -14 -5 -15 5 -6 7 7 10 15 7 18 -3 3 -9 -2 -12 -12z"/>
<path d="M7227 7693 c-22 -29 -19 -37 6 -18 10 7 17 20 15 28 -2 11 -8 9 -21
-10z"/>
<path d="M3425 7373 l6 -53 -43 -6 c-110 -18 -166 -161 -96 -249 41 -52 146
-72 208 -40 34 17 41 4 10 -18 -20 -14 -19 -14 6 -25 48 -22 124 -7 124 25 0
27 77 35 385 36 172 1 316 0 318 -3 9 -8 11 -402 3 -447 -7 -37 -5 -45 18 -67
33 -34 48 -33 85 9 35 40 38 62 15 107 -12 24 -16 72 -18 244 -4 276 1 269
-196 265 -69 -1 -226 3 -350 9 -211 10 -228 13 -275 37 -30 15 -66 46 -90 76
l-39 50 37 -6 c21 -3 156 -11 300 -18 309 -14 514 -2 549 33 24 24 20 46 -12
69 -23 16 -62 18 -488 21 l-464 3 7 -52z m38 -190 c16 -9 5 -41 -18 -51 -39
-18 -54 -15 -67 14 -10 22 -10 28 7 40 16 12 53 11 78 -3z"/>
<path d="M4816 7395 c4 -8 3 -23 0 -32 -6 -15 -8 -15 -16 -3 -13 20 -13 16
-11 -395 1 -317 -6 -482 -24 -541 -5 -14 1 -30 18 -49 19 -22 29 -27 50 -21
15 3 30 14 35 24 4 9 6 233 2 497 -4 380 -8 486 -19 508 -15 28 -45 39 -35 12z"/>
<path d="M3900 6979 c-39 -16 -89 -58 -105 -89 -50 -96 36 -229 147 -230 20 0
40 -4 43 -10 3 -5 30 -10 58 -10 48 0 54 3 76 35 23 33 23 39 13 115 -7 59
-17 92 -37 121 -42 64 -129 94 -195 68z m94 -122 c12 -9 17 -23 14 -42 -3 -28
-7 -30 -46 -33 -68 -5 -92 28 -52 68 23 23 58 26 84 7z"/>
<path d="M6244 6970 c-12 -5 -38 -25 -57 -44 -77 -77 -53 -172 63 -249 15 -10
45 -17 76 -17 130 0 202 131 131 238 -45 68 -142 101 -213 72z m124 -122 c19
-19 14 -55 -10 -72 -27 -19 -59 -21 -76 -4 -13 13 -17 70 -5 81 11 12 78 8 91
-5z"/>
<path d="M7380 6948 c0 -30 -72 -172 -118 -233 -59 -78 -382 -360 -462 -404
-199 -109 -315 -168 -368 -187 -35 -14 -81 -33 -103 -44 -42 -22 -282 -103
-339 -115 -19 -4 -82 -20 -140 -36 -121 -34 -247 -56 -408 -69 -62 -6 -124
-13 -137 -16 -40 -10 -18 -24 36 -24 27 0 49 -4 49 -10 0 -16 214 -12 315 6
181 32 272 54 491 123 184 58 383 154 557 270 59 39 109 71 113 71 4 0 45 33
91 73 47 39 99 82 117 95 17 13 30 28 28 34 -3 13 27 48 41 48 6 0 0 -11 -13
-25 -40 -42 -6 -28 42 18 119 115 204 264 215 379 3 37 3 68 -1 68 -3 0 -6
-10 -6 -22z m-995 -868 c-3 -5 -14 -10 -23 -9 -14 0 -13 2 3 9 27 11 27 11 20
0z"/>
<path d="M7325 6910 c-14 -23 -29 -49 -32 -58 -11 -29 -40 -62 -48 -54 -5 4
-5 2 -2 -4 8 -14 -31 -67 -43 -59 -4 3 -34 -20 -67 -51 -32 -30 -87 -78 -121
-107 -35 -29 -87 -72 -115 -96 -29 -24 -81 -58 -117 -75 -116 -57 -117 -58
-95 -66 18 -6 18 -7 -3 -12 -12 -4 -20 -2 -16 3 3 5 1 9 -5 9 -5 0 -12 -4 -15
-9 -20 -32 -393 -185 -581 -238 -186 -52 -554 -123 -724 -138 -55 -6 -70 -10
-57 -17 9 -5 31 -8 49 -7 60 4 89 0 81 -12 -9 -15 154 -4 310 21 116 18 339
77 501 132 107 35 485 220 529 258 17 15 52 41 78 59 27 17 90 67 142 109 52
42 124 101 160 129 83 67 148 148 193 241 40 81 39 106 -2 42z"/>
<path d="M2921 6878 c-1 -21 18 -72 24 -66 3 3 -1 22 -9 44 -8 21 -15 31 -15
22z"/>
<path d="M7349 6740 c-106 -226 -563 -595 -928 -750 -118 -50 -555 -196 -671
-224 -270 -64 -623 -82 -905 -46 -93 12 -197 27 -230 35 -33 7 -116 25 -185
40 -228 50 -628 211 -850 343 -140 84 -283 187 -381 277 -89 82 -218 151 -149
80 11 -11 39 -44 62 -74 46 -58 207 -199 298 -260 30 -21 75 -52 100 -69 138
-93 567 -281 793 -346 216 -62 338 -86 564 -111 305 -33 708 -9 960 56 108 28
391 121 523 172 212 82 430 212 645 384 l80 64 -80 -77 c-214 -206 -481 -354
-860 -477 -469 -152 -615 -179 -979 -178 -340 0 -604 42 -916 145 -131 43
-511 203 -599 253 -36 20 -91 50 -121 66 l-55 30 37 -35 c21 -20 38 -41 38
-47 0 -7 38 -30 85 -51 80 -37 111 -59 65 -47 -30 8 -14 -10 20 -21 28 -10 44
1 18 11 -10 4 -10 6 -1 6 6 1 18 -7 25 -17 20 -29 89 -63 268 -134 287 -113
355 -133 645 -184 212 -37 335 -46 399 -30 28 7 58 11 66 7 9 -3 -1 -8 -25
-12 -104 -16 239 -7 390 11 215 24 251 31 437 85 271 78 407 129 615 234 161
80 234 123 289 169 21 18 75 61 120 97 81 64 236 237 278 311 12 21 43 67 68
102 57 76 80 142 76 214 l-3 53 -26 -55z"/>
<path d="M2921 6694 c0 -11 3 -14 6 -6 3 7 2 16 -1 19 -3 4 -6 -2 -5 -13z"/>
<path d="M2890 6667 c0 -19 74 -149 122 -213 120 -161 139 -184 146 -184 4 0
25 -17 47 -37 21 -21 35 -31 30 -23 -5 8 21 -7 58 -33 37 -25 77 -52 89 -58
23 -12 23 -12 4 10 -11 12 -60 52 -110 90 -171 129 -208 171 -354 406 -18 28
-32 47 -32 42z"/>
<path d="M4600 5970 c0 -7 35 -10 95 -9 52 1 95 6 95 11 0 4 -43 8 -95 8 -59
0 -95 -4 -95 -10z"/>
<path d="M4371 5911 c-21 -14 2 -22 84 -30 92 -9 134 3 50 14 -89 12 -89 12
-105 19 -8 3 -21 2 -29 -3z"/>
<path d="M4873 5813 c9 -2 25 -2 35 0 9 3 1 5 -18 5 -19 0 -27 -2 -17 -5z"/>
<path d="M4793 4843 c9 -2 23 -2 30 0 6 3 -1 5 -18 5 -16 0 -22 -2 -12 -5z"/>
<path d="M8414 9288 c1 -13 7 -23 12 -23 5 0 10 10 12 23 2 15 -2 22 -12 22
-11 0 -15 -7 -12 -22z"/>
<path d="M8660 9292 c0 -5 6 -17 14 -27 16 -23 46 -14 46 15 0 16 -7 20 -30
20 -16 0 -30 -4 -30 -8z"/>
<path d="M9185 9280 c2 -28 12 -35 30 -20 23 19 18 40 -8 40 -17 0 -23 -5 -22
-20z"/>
<path d="M9467 9286 c-6 -15 1 -26 15 -26 4 0 8 9 8 20 0 23 -15 27 -23 6z"/>
<path d="M8920 9270 c0 -5 5 -10 11 -10 5 0 7 5 4 10 -3 6 -8 10 -11 10 -2 0
-4 -4 -4 -10z"/>
<path d="M8667 9064 c-4 -4 -7 -16 -7 -26 0 -13 8 -18 31 -18 26 0 30 3 27 23
-3 22 -36 36 -51 21z"/>
<path d="M9186 9061 c-4 -5 0 -12 6 -14 10 -4 10 -6 1 -6 -24 -2 -13 -21 11
-21 19 0 22 4 18 25 -4 25 -25 34 -36 16z"/>
<path d="M9450 9045 c0 -22 4 -26 23 -23 14 2 22 10 22 23 0 13 -8 21 -22 23
-19 3 -23 -1 -23 -23z"/>
<path d="M1759 9037 c-24 -13 -59 -43 -76 -66 -59 -77 -42 -175 44 -251 l44
-39 -11 -58 c-7 -37 -13 -349 -17 -863 l-6 -805 -60 -145 c-70 -170 -150 -402
-177 -515 -11 -44 -29 -172 -40 -285 -11 -113 -23 -209 -25 -215 -2 -5 -4 164
-4 376 -1 212 -4 419 -7 460 l-7 74 39 25 c104 67 110 207 13 263 l-39 22 0
500 0 500 45 24 c88 47 117 130 75 215 -29 60 -70 89 -134 93 -63 5 -130 -26
-163 -76 -27 -40 -31 -117 -8 -160 16 -32 70 -81 89 -81 14 0 26 -358 26 -782
l0 -228 -38 -19 c-47 -24 -69 -56 -78 -109 -9 -56 10 -105 59 -149 l42 -37 -3
-381 c-1 -271 -7 -429 -19 -550 -35 -344 -11 -984 43 -1144 3 -11 11 -8 32 11
30 28 68 50 125 72 34 14 37 18 37 53 -1 21 -7 79 -15 128 -9 53 -18 201 -21
360 -7 265 5 499 37 750 14 113 87 390 146 554 11 31 18 39 24 30 5 -8 9 -300
10 -649 1 -349 4 -678 8 -730 l6 -95 32 0 33 0 2 850 c3 973 -11 833 111 1085
95 197 93 196 86 28 -4 -79 -7 -589 -8 -1135 l-1 -991 106 -99 c59 -54 140
-138 181 -187 124 -149 314 -309 345 -290 21 13 -1 44 -115 162 -68 70 -149
159 -181 197 -61 74 -231 235 -248 235 -8 0 -4 2100 4 2305 3 63 6 67 168 322
37 58 40 36 40 -290 0 -173 3 -348 6 -389 l7 -74 -33 -14 c-17 -7 -43 -30 -57
-51 -22 -33 -25 -47 -21 -94 4 -44 11 -62 34 -86 16 -17 39 -35 52 -40 l22 -9
-1 -696 -1 -696 203 -207 c209 -212 271 -264 343 -287 23 -7 35 -13 28 -13
-32 -2 -126 -108 -164 -186 -35 -71 -39 -86 -34 -134 11 -118 127 -273 253
-340 31 -16 169 -41 227 -41 l50 0 573 -577 c538 -543 573 -580 577 -618 3
-22 8 -100 12 -172 4 -100 3 -133 -6 -133 -12 0 -122 105 -500 475 -118 116
-242 236 -275 266 -34 30 -189 176 -345 326 -157 149 -332 310 -390 358 -58
48 -130 111 -160 140 -75 71 -166 142 -210 165 -34 18 -37 18 -47 1 -19 -31
44 -106 193 -231 375 -314 672 -590 1269 -1180 154 -152 307 -294 339 -316 32
-21 72 -47 87 -57 l29 -19 2 -191 c4 -484 2 -819 -4 -824 -30 -18 26 -83 71
-83 36 0 39 12 30 155 -4 55 -7 392 -8 748 l-1 648 -587 585 c-324 322 -600
596 -615 609 l-28 24 48 38 c27 21 60 52 73 69 l25 32 57 -69 c48 -57 201
-196 452 -409 30 -25 206 -193 393 -375 l340 -330 -5 -805 c-3 -507 -8 -815
-15 -832 -14 -37 4 -65 59 -89 24 -10 51 -19 59 -19 18 0 18 44 0 62 -21 22
-31 725 -16 1266 l12 442 -199 193 c-307 299 -532 511 -599 564 -34 27 -152
136 -262 243 -111 107 -213 200 -226 207 -22 11 -24 20 -28 105 -3 79 -8 101
-33 147 -38 68 -119 141 -187 166 -40 15 -79 20 -158 20 l-105 1 -65 64 c-36
36 -150 148 -254 250 -103 102 -191 192 -194 200 -4 8 -6 320 -4 693 2 655 3
677 21 677 27 0 79 63 86 104 14 70 -20 136 -80 162 -31 13 -32 14 -38 96 -11
139 -8 739 4 782 8 29 40 68 138 165 70 70 133 136 139 148 7 12 12 52 12 88
l0 67 -57 -48 c-32 -26 -97 -86 -145 -133 l-88 -86 -1 285 c0 157 -3 303 -7
325 -7 40 -7 40 -23 18 -9 -13 -18 -20 -22 -17 -12 13 -16 -71 -20 -398 -3
-343 -7 -375 -42 -362 -12 5 -141 -139 -171 -192 -8 -14 -13 111 -18 475 -4
272 -12 528 -18 570 -12 89 -13 133 -3 222 6 55 4 71 -13 105 -58 112 -187
156 -293 101z m172 -116 c17 -18 29 -40 29 -56 0 -31 -49 -85 -78 -85 -28 0
-84 20 -104 38 -29 25 -23 76 13 106 44 37 101 36 140 -3z m69 -1496 c-9 -22
-47 -89 -84 -150 -37 -60 -70 -122 -73 -138 -3 -15 -9 -29 -13 -32 -12 -7 -22
499 -15 808 3 161 2 396 -2 523 l-8 232 56 5 c31 3 76 13 100 24 l44 19 7
-625 c6 -584 5 -629 -12 -666z m-554 807 c16 -10 34 -48 34 -70 0 -28 -20 -41
-72 -48 -51 -7 -78 11 -78 52 0 50 76 93 116 66z m-15 -1332 c41 -22 10 -90
-41 -90 -33 0 -50 17 -50 50 0 46 44 65 91 40z m964 -175 c31 -30 32 -49 3
-69 -44 -31 -98 -12 -98 34 0 14 46 60 60 60 6 0 22 -11 35 -25z m-940 -1620
c19 -155 25 -256 14 -249 -5 3 -10 -5 -10 -18 -5 -68 -18 115 -22 297 -2 116
-3 183 -1 150 2 -33 10 -114 19 -180z m1523 -452 c-10 -2 -26 -2 -35 0 -10 3
-2 5 17 5 19 0 27 -2 18 -5z m125 0 c-7 -2 -21 -2 -30 0 -10 3 -4 5 12 5 17 0
24 -2 18 -5z m132 -48 c39 -32 28 -32 -15 0 -19 14 -30 25 -24 25 5 0 23 -11
39 -25z m-102 -97 c40 -20 96 -81 107 -114 12 -36 8 -81 -13 -144 -14 -43 -34
-68 -69 -86 -45 -23 -45 -16 0 13 23 15 42 32 42 37 0 5 -8 2 -17 -6 -54 -47
-163 -64 -222 -34 -42 22 -99 91 -106 129 -10 49 11 113 51 157 56 62 158 83
227 48z"/>
<path d="M2742 9044 c-48 -34 -14 -124 42 -110 57 14 73 66 33 104 -28 26 -45
27 -75 6z"/>
<path d="M7874 9049 c-9 -15 12 -33 30 -26 9 4 16 13 16 22 0 17 -35 21 -46 4z"/>
<path d="M8135 9050 c-8 -12 20 -24 35 -15 5 3 10 10 10 16 0 12 -37 12 -45
-1z"/>
<path d="M8400 9040 c0 -17 5 -21 28 -18 16 2 27 9 27 18 0 9 -11 16 -27 18
-23 3 -28 -1 -28 -18z"/>
<path d="M8910 9045 c0 -18 24 -30 39 -21 16 10 1 36 -20 36 -10 0 -19 -7 -19
-15z"/>
<path d="M8922 8838 c-28 -28 5 -66 40 -47 24 13 23 36 -1 49 -24 13 -24 13
-39 -2z"/>
<path d="M7883 8833 c-15 -5 -17 -49 -4 -57 19 -12 42 7 39 32 -3 26 -14 34
-35 25z"/>
<path d="M8137 8833 c-4 -3 -7 -15 -7 -25 0 -12 7 -18 24 -18 33 0 44 20 21
37 -21 15 -29 16 -38 6z"/>
<path d="M8404 8826 c-8 -21 13 -46 32 -39 20 8 13 47 -9 51 -9 2 -20 -4 -23
-12z"/>
<path d="M8660 8822 c0 -11 7 -25 15 -32 21 -18 47 -5 43 22 -4 31 -58 40 -58
10z"/>
<path d="M2254 8804 c-18 -14 -18 -15 4 -4 12 6 22 13 22 15 0 8 -5 6 -26 -11z"/>
<path d="M9182 8803 c2 -10 13 -19 26 -21 17 -3 22 2 22 17 0 16 -6 21 -26 21
-19 0 -25 -5 -22 -17z"/>
<path d="M9452 8803 c4 -22 43 -25 43 -3 0 8 -11 16 -23 18 -19 3 -23 0 -20
-15z"/>
<path d="M7874 8605 c-9 -23 3 -45 26 -45 16 0 20 7 20 30 0 23 -4 30 -20 30
-11 0 -23 -7 -26 -15z"/>
<path d="M8407 8613 c-4 -3 -7 -17 -7 -30 0 -20 5 -24 22 -21 26 3 37 36 16
49 -16 11 -23 11 -31 2z"/>
<path d="M8667 8614 c-23 -23 7 -69 37 -58 25 10 17 58 -9 62 -12 2 -24 0 -28
-4z"/>
<path d="M8927 8614 c-13 -14 -7 -52 10 -58 25 -10 51 20 37 42 -12 19 -36 27
-47 16z"/>
<path d="M8128 8598 c-9 -23 3 -38 28 -38 19 0 24 5 24 25 0 20 -5 25 -24 25
-13 0 -26 -6 -28 -12z"/>
<path d="M9180 8585 c0 -29 34 -36 44 -9 8 21 -1 34 -25 34 -14 0 -19 -7 -19
-25z"/>
<path d="M9459 8578 c5 -13 15 -23 22 -23 8 0 15 10 17 23 3 18 -1 22 -22 22
-22 0 -24 -3 -17 -22z"/>
<path d="M8410 8395 c-11 -13 -11 -18 2 -31 20 -20 50 -7 46 20 -4 26 -30 32
-48 11z"/>
<path d="M8136 8384 c-9 -24 -8 -26 21 -22 37 4 45 38 10 38 -14 0 -28 -7 -31
-16z"/>
<path d="M8672 8378 c2 -15 10 -23 23 -23 13 0 21 8 23 23 3 18 -1 22 -23 22
-22 0 -26 -4 -23 -22z"/>
<path d="M8925 8390 c-10 -16 4 -30 31 -30 17 0 24 5 24 20 0 15 -7 20 -24 20
-14 0 -28 -4 -31 -10z"/>
<path d="M9193 8393 c-18 -6 -16 -30 3 -37 19 -7 34 1 34 19 0 15 -19 24 -37
18z"/>
<path d="M7874 8375 c-6 -16 2 -35 16 -35 14 0 41 31 35 41 -9 14 -45 11 -51
-6z"/>
<path d="M9455 8380 c-8 -13 3 -30 20 -30 14 0 27 24 18 34 -10 9 -31 7 -38
-4z"/>
<path d="M7516 8303 c15 -68 47 -169 57 -181 6 -7 51 -41 101 -75 222 -151
586 -561 763 -859 125 -209 273 -533 318 -694 9 -32 32 -104 50 -159 38 -114
102 -469 115 -640 10 -137 -4 -538 -26 -705 -17 -138 -85 -480 -137 -692 -19
-75 -31 -141 -28 -146 3 -4 24 -19 45 -32 50 -30 50 -31 111 155 27 79 50 143
52 141 2 -2 5 -21 6 -42 2 -36 4 -39 31 -39 51 0 72 52 91 219 3 22 9 42 14
45 4 3 11 108 15 233 6 217 6 228 -13 247 -11 11 -21 16 -23 10 -2 -5 -3 134
-3 308 0 254 -4 342 -18 438 -28 190 -55 324 -88 441 -17 60 -43 157 -59 216
-32 115 -125 355 -187 483 -111 227 -243 430 -280 430 -22 1 -57 24 -48 33 3
3 -5 16 -17 29 -12 12 -19 26 -15 29 3 4 18 -7 32 -22 24 -26 24 -25 -4 18
-28 42 -34 46 -68 45 -71 -1 -107 23 -211 140 -119 134 -162 187 -162 202 0 6
-8 19 -17 29 -25 25 -103 145 -103 157 0 10 55 -32 100 -75 23 -22 45 -40 48
-40 11 0 -121 129 -177 173 -30 23 -73 61 -97 83 -36 36 -158 124 -170 124 -3
0 -2 -12 2 -27z m275 -210 c13 -16 12 -17 -3 -4 -10 7 -18 15 -18 17 0 8 8 3
21 -13z m1239 -3240 c-9 -15 -10 -12 -6 16 3 18 7 50 8 70 1 25 3 20 5 -16 2
-29 -1 -61 -7 -70z m-20 -113 c-10 -23 -10 -22 -5 9 3 18 6 43 7 55 1 12 3 9
5 -9 2 -17 -1 -42 -7 -55z m-15 -80 c-9 -41 -17 -33 -9 9 4 17 9 30 11 27 3
-2 2 -19 -2 -36z"/>
<path d="M8927 8194 c-10 -10 -9 -42 2 -48 18 -11 42 6 39 28 -3 21 -28 33
-41 20z"/>
<path d="M8138 8185 c-18 -19 20 -63 43 -49 12 7 12 44 0 44 -5 0 -16 2 -23 5
-8 3 -17 3 -20 0z"/>
<path d="M8413 8183 c-18 -6 -16 -28 2 -43 12 -10 18 -10 30 0 29 24 5 55 -32
43z"/>
<path d="M8660 8172 c0 -11 7 -25 15 -32 21 -18 47 -5 43 22 -4 31 -58 40 -58
10z"/>
<path d="M9180 8166 c0 -18 27 -39 40 -31 5 3 10 15 10 26 0 14 -7 19 -25 19
-15 0 -25 -6 -25 -14z"/>
<path d="M8420 7949 c0 -11 5 -17 10 -14 6 3 10 13 10 21 0 8 -4 14 -10 14 -5
0 -10 -9 -10 -21z"/>
<path d="M8685 7960 c-7 -12 2 -30 16 -30 12 0 12 27 0 35 -5 3 -12 1 -16 -5z"/>
<path d="M8940 7945 c0 -9 5 -15 11 -13 6 2 11 8 11 13 0 5 -5 11 -11 13 -6 2
-11 -4 -11 -13z"/>
<path d="M8413 7753 c-7 -2 -13 -11 -13 -18 0 -18 32 -28 42 -13 15 24 -2 42
-29 31z"/>
<path d="M8683 7743 c-23 -9 -15 -35 10 -31 12 2 22 9 22 17 0 16 -14 22 -32
14z"/>
<path d="M9184 7739 c-3 -6 0 -17 7 -25 18 -17 44 -2 36 20 -7 18 -33 21 -43
5z"/>
<path d="M8930 7725 c0 -8 9 -15 20 -15 11 0 20 7 20 15 0 8 -9 15 -20 15 -11
0 -20 -7 -20 -15z"/>
<path d="M9452 7728 c6 -18 28 -21 28 -4 0 9 -7 16 -16 16 -9 0 -14 -5 -12
-12z"/>
<path d="M7859 7271 c-42 -43 -40 -89 6 -136 45 -44 89 -47 135 -8 44 36 53
66 36 108 -29 68 -125 87 -177 36z"/>
<path d="M7955 6778 c-33 -17 -105 -91 -105 -107 0 -8 10 -25 21 -37 l22 -23
-34 -66 -34 -66 -47 6 -48 6 0 -53 c0 -29 3 -63 6 -76 6 -22 10 -23 54 -17
l47 6 26 -59 c32 -71 33 -80 7 -107 l-20 -22 35 -46 c51 -67 64 -72 95 -35
l25 30 68 -23 67 -24 0 -52 0 -53 60 0 c33 0 63 -1 68 -2 4 -2 8 22 10 54 3
55 4 56 43 72 50 20 93 20 109 1 20 -25 42 -17 96 34 l52 47 -29 20 c-16 10
-29 22 -29 27 0 4 13 37 30 74 29 64 31 66 62 60 18 -3 41 -8 51 -12 15 -6 17
1 17 73 l0 81 -47 3 -48 3 -32 67 c-28 58 -30 70 -21 96 10 27 9 34 -16 67
-15 20 -43 44 -62 53 -34 16 -34 16 -67 -16 -36 -35 -68 -40 -123 -20 -24 8
-58 9 -131 1 l-98 -10 -30 28 c-25 23 -34 26 -50 17z m415 -84 c43 -22 108
-97 125 -144 38 -105 26 -247 -25 -312 -59 -76 -208 -136 -304 -123 -99 13
-212 91 -248 173 -74 166 26 397 184 423 61 9 238 -1 268 -17z"/>
<path d="M8117 6626 c-56 -21 -115 -63 -137 -98 -49 -80 -30 -218 38 -286 49
-48 147 -87 201 -79 58 7 149 57 182 99 62 77 72 134 39 221 -47 125 -192 189
-323 143z m196 -45 c82 -35 119 -114 97 -209 -14 -65 -55 -114 -121 -148 -62
-31 -102 -30 -168 2 -124 62 -170 220 -88 297 77 72 191 96 280 58z"/>
<path d="M8087 6529 c-46 -27 -62 -140 -27 -196 26 -44 91 -84 142 -90 91 -10
188 95 175 189 -8 56 -27 74 -27 25 0 -49 -20 -94 -59 -134 -44 -44 -80 -50
-136 -23 -78 38 -109 136 -65 208 11 17 19 32 17 32 -1 0 -10 -5 -20 -11z"/>
<path d="M8157 6499 c-31 -18 -47 -63 -37 -99 23 -81 92 -104 151 -52 25 23
33 38 36 78 5 49 5 50 -31 67 -41 19 -92 22 -119 6z"/>
<path d="M7846 5880 c-40 -13 -65 -38 -76 -80 -14 -51 3 -94 46 -119 l34 -20
2 -355 3 -355 -161 -173 c-212 -228 -633 -652 -662 -667 -17 -9 -31 -10 -57
-1 -41 14 -51 40 -35 90 17 51 6 103 -31 145 -68 78 -207 49 -229 -48 -16 -75
18 -138 100 -183 36 -19 58 -42 84 -84 46 -74 58 -83 97 -75 53 12 285 227
659 612 129 133 238 239 242 237 3 -2 10 1 14 7 4 8 3 9 -4 5 -7 -4 -12 -3
-12 3 0 11 53 51 68 51 5 0 15 7 22 15 8 9 8 15 2 15 -6 0 -12 -3 -15 -7 -2
-5 -2 -1 0 7 3 8 4 183 3 388 l-1 374 31 34 c56 64 35 163 -39 184 -41 11 -46
11 -85 0z"/>
<path d="M8150 5648 c0 -363 -18 -783 -34 -821 -7 -18 -26 -44 -42 -58 -16
-13 -70 -71 -120 -129 -50 -58 -232 -242 -405 -410 -172 -168 -356 -348 -409
-400 l-95 -95 -306 0 -307 -1 -77 -69 c-42 -38 -108 -105 -145 -149 -37 -45
-111 -126 -164 -181 l-95 -100 -1 -928 c0 -620 -3 -935 -10 -948 -22 -40 34
-84 76 -61 14 8 23 5 40 -13 15 -16 25 -20 32 -13 11 11 -5 45 -35 76 -10 10
-13 213 -13 931 l0 919 129 143 c70 79 167 182 214 227 l87 84 47 -6 c131 -15
258 -17 410 -6 l168 13 173 171 c216 212 198 196 207 188 5 -4 5 -2 2 4 -4 6
5 22 19 35 15 14 24 18 22 10 -4 -19 29 -26 47 -11 8 7 15 28 15 47 0 26 5 36
20 40 11 3 20 9 20 13 0 5 10 10 23 12 15 2 22 10 21 25 0 12 3 20 7 18 15
-10 69 27 69 47 0 11 14 33 30 48 17 15 30 24 30 19 0 -4 7 -6 15 -3 10 4 13
13 10 24 -6 20 10 36 20 20 10 -17 45 -12 39 5 -4 10 0 15 11 15 10 0 28 10
40 23 13 12 37 33 54 47 17 13 31 29 31 36 0 7 15 25 34 42 19 17 33 32 31 34
-3 2 12 10 32 18 39 14 64 38 100 101 27 47 40 109 23 109 -9 0 -10 9 -5 33
11 45 17 853 8 962 l-8 90 -42 3 -43 3 0 -233z m-1011 -1837 c-19 -22 -38 -40
-44 -40 -5 -1 9 17 30 39 50 51 57 52 14 1z"/>
<path d="M8468 5862 c-33 -20 -58 -68 -58 -111 0 -23 11 -44 41 -76 l41 -44
-8 -418 -7 -418 -106 -110 c-58 -60 -128 -133 -156 -162 -27 -28 -62 -66 -77
-85 -103 -129 -779 -798 -938 -928 -53 -43 -58 -45 -140 -52 -47 -3 -175 -7
-285 -7 l-200 -1 -155 -156 c-85 -86 -149 -154 -142 -150 26 15 10 -11 -43
-69 -31 -35 -55 -54 -55 -45 -1 12 -3 11 -8 -2 -4 -10 -4 -64 0 -120 4 -57 7
-436 7 -842 0 -600 2 -741 13 -752 17 -16 113 -54 138 -54 26 0 26 36 1 108
l-18 53 -13 -31 c-7 -17 -14 -29 -16 -27 -2 2 -6 368 -10 815 l-7 811 48 58
c27 32 107 117 179 190 l129 132 261 -6 c259 -6 261 -6 310 18 37 17 117 89
305 275 141 139 259 256 264 260 4 4 7 -2 7 -14 0 -12 -6 -21 -12 -20 -7 2
-17 -12 -22 -29 -7 -21 -16 -32 -26 -30 -9 1 -16 -7 -18 -21 -2 -12 -7 -20
-12 -17 -4 3 -10 -2 -14 -10 -3 -8 -1 -15 4 -15 6 0 10 -9 10 -20 0 -11 5 -20
10 -20 6 0 10 5 10 10 0 6 9 10 20 10 11 0 20 5 20 10 0 6 -4 10 -10 10 -5 0
-10 5 -10 11 0 6 8 8 19 4 10 -3 24 1 31 10 8 10 9 15 1 15 -6 0 -11 -4 -11
-10 0 -5 -4 -10 -10 -10 -22 0 -8 18 23 30 39 16 88 60 81 72 -3 5 4 12 15 15
16 4 20 11 16 24 -5 15 -3 17 10 13 11 -5 25 2 39 17 13 13 37 36 55 52 17 15
31 34 31 42 0 8 5 15 11 15 13 0 109 96 109 109 0 4 12 14 27 22 36 18 293
276 293 293 0 8 9 16 20 19 11 3 20 10 20 15 0 6 -9 8 -20 5 -11 -3 -20 0 -20
6 0 6 9 11 20 11 13 0 18 5 14 15 -4 8 -14 15 -23 15 -13 0 -13 2 -2 9 7 5 22
6 32 4 13 -4 19 0 19 12 0 22 -32 12 -80 -25 -70 -54 -73 -39 -6 25 38 35 72
63 74 60 3 -2 -6 -14 -19 -25 l-24 -21 27 5 c63 14 75 24 82 63 3 21 6 246 5
500 l-1 463 30 25 c48 40 58 77 37 131 -14 37 -25 50 -59 65 -51 23 -83 23
-118 1z m-148 -1396 c0 -2 -8 -10 -17 -17 -16 -13 -17 -12 -4 4 13 16 21 21
21 13z m-142 -165 c-7 -12 -18 -21 -25 -21 -8 0 -4 10 9 25 25 29 35 26 16 -4z"/>
<path d="M857 5503 c-14 -13 -6 -41 13 -46 27 -7 47 18 30 38 -13 16 -32 19
-43 8z"/>
<path d="M7420 5349 c0 -5 5 -7 10 -4 6 3 10 8 10 11 0 2 -4 4 -10 4 -5 0 -10
-5 -10 -11z"/>
<path d="M857 5223 c-12 -11 -7 -40 9 -53 13 -11 19 -10 36 8 18 17 19 23 8
36 -13 16 -42 21 -53 9z"/>
<path d="M9067 5144 c-4 -4 -7 -14 -7 -23 0 -11 3 -12 11 -4 6 6 10 16 7 23
-2 6 -7 8 -11 4z"/>
<path d="M1660 4604 l0 -75 -32 3 c-27 2 -39 12 -63 51 -26 41 -34 46 -57 42
-69 -12 -100 -58 -80 -121 l10 -33 -43 6 c-41 5 -45 4 -64 -28 -27 -44 -27
-45 10 -79 30 -27 31 -29 19 -66 -19 -59 -28 -67 -77 -61 l-43 5 0 -58 c0 -83
4 -90 55 -90 43 0 43 0 61 -52 l17 -52 -34 -28 -33 -28 19 -36 c24 -46 65 -78
79 -64 14 14 26 13 26 -4 0 -22 40 -66 59 -66 10 0 29 16 42 35 13 19 29 34
34 34 6 -1 19 -1 30 0 16 2 12 6 -16 21 -52 28 -156 143 -169 187 -21 75 -23
146 -6 212 27 106 61 156 141 210 l70 48 128 1 c119 1 133 0 177 -23 60 -30
123 -94 151 -153 30 -60 37 -189 16 -263 -22 -74 -76 -143 -137 -174 -94 -47
-120 -24 -41 36 65 50 101 121 108 211 7 89 -7 143 -50 200 -42 55 -94 84
-177 99 -86 15 -131 2 -212 -59 -78 -59 -110 -119 -116 -214 -3 -55 0 -76 20
-120 29 -63 107 -146 161 -172 37 -17 38 -19 22 -36 -14 -16 -16 -31 -10 -94
l7 -76 69 0 c41 0 71 5 75 12 4 6 6 37 5 68 -2 52 0 58 21 64 44 11 57 6 88
-39 l30 -44 35 21 c41 23 59 52 52 80 -4 15 -3 17 9 7 23 -19 59 -2 99 47 l38
45 -31 32 -31 32 16 49 16 48 58 -5 57 -5 4 72 c3 44 0 74 -6 78 -6 4 -32 8
-57 8 -54 0 -66 11 -75 66 -6 38 -3 43 27 66 30 25 32 28 20 56 -7 17 -21 38
-31 47 -18 16 -22 16 -74 -6 -31 -12 -58 -20 -62 -17 -3 4 6 24 20 45 14 20
26 43 26 48 0 22 -81 85 -108 85 -5 0 -15 -13 -22 -30 -13 -31 -90 -77 -110
-65 -5 3 -10 35 -10 71 l0 64 -75 0 -75 0 0 -76z m185 -233 c30 -13 48 -31 70
-72 63 -115 27 -274 -79 -346 -61 -42 -104 -43 -172 -4 -51 30 -87 69 -119
130 -27 54 -18 156 20 211 46 67 106 100 179 100 37 0 77 -8 101 -19z m-128
-507 c-3 -3 -12 -4 -19 -1 -8 3 -5 6 6 6 11 1 17 -2 13 -5z"/>
<path d="M1665 4321 c-117 -72 -124 -190 -20 -294 68 -66 155 -73 217 -18 72
64 50 260 -35 311 -42 26 -121 26 -162 1z m155 -133 c27 -45 25 -73 -6 -97
-37 -29 -61 -26 -101 14 -30 30 -33 37 -22 57 22 43 42 58 76 58 27 0 37 -6
53 -32z"/>
<path d="M7650 4569 c0 -5 5 -7 10 -4 6 3 10 8 10 11 0 2 -4 4 -10 4 -5 0 -10
-5 -10 -11z"/>
<path d="M3995 4270 c-11 -4 -37 -26 -57 -48 -61 -68 -62 -170 -2 -242 41 -48
75 -61 156 -59 60 2 73 -1 87 -18 9 -11 32 -30 51 -43 53 -36 149 -121 305
-270 168 -161 347 -306 442 -360 34 -19 43 -30 48 -59 10 -65 15 -1791 5
-1791 -6 0 -10 -13 -10 -30 0 -53 60 -91 89 -56 20 24 15 1846 -5 1942 -4 21
-20 34 -117 91 -69 41 -236 184 -381 327 -77 77 -189 179 -247 227 -138 115
-143 123 -128 198 12 56 11 62 -12 108 -35 67 -77 93 -148 92 -31 0 -65 -4
-76 -9z m135 -130 c29 -29 25 -54 -15 -89 -43 -38 -58 -39 -91 -6 -33 33 -30
84 6 102 37 19 77 16 100 -7z"/>
<path d="M5972 4105 c-80 -51 -134 -96 -245 -209 -193 -195 -218 -224 -228
-260 -5 -17 -9 -522 -9 -1128 0 -815 -3 -1109 -12 -1142 -16 -59 -1 -79 54
-74 25 2 38 -1 38 -9 0 -15 17 -26 30 -18 6 4 3 16 -8 33 -16 24 -17 101 -17
1179 l0 1152 50 51 c28 28 82 68 121 90 39 21 79 51 89 67 49 75 216 227 293
267 36 19 41 40 13 56 -37 19 -68 10 -169 -55z"/>
<path d="M5102 4090 c-43 -10 -100 -56 -123 -100 -25 -46 -24 -120 1 -170 25
-48 61 -77 171 -132 89 -45 124 -72 115 -86 -3 -5 -6 -393 -7 -863 -1 -470 -5
-982 -9 -1139 -7 -276 -6 -286 13 -302 10 -10 27 -18 37 -18 9 0 25 -9 35 -20
13 -14 22 -17 29 -10 5 5 18 10 28 10 26 0 22 15 -11 49 l-29 29 -7 1152 -7
1152 -49 34 c-62 46 -68 65 -32 110 53 67 63 88 63 135 0 108 -111 195 -218
169z m107 -146 c27 -35 26 -48 -5 -73 -30 -23 -93 -28 -112 -9 -7 7 -12 27
-12 44 0 63 89 89 129 38z"/>
<path d="M2240 3967 c0 -18 8 -44 17 -57 39 -58 165 -188 258 -268 55 -47 163
-147 240 -222 77 -74 207 -200 290 -280 82 -80 340 -332 573 -560 233 -228
441 -426 462 -440 28 -18 40 -34 46 -60 4 -19 8 -200 9 -403 2 -348 3 -368 21
-382 25 -19 43 -19 66 2 17 15 18 15 18 -1 0 -22 66 -54 81 -39 8 8 3 24 -21
57 -31 45 -49 52 -51 18 -1 -9 -5 1 -10 23 -10 48 -10 271 0 235 6 -22 8 -23
14 -7 10 27 9 37 -7 37 -20 0 -26 67 -26 296 0 111 -3 209 -6 218 -3 8 -121
122 -262 253 -141 131 -356 335 -477 453 -395 386 -776 750 -897 858 -65 57
-151 145 -190 194 -39 49 -82 94 -95 99 -43 16 -53 11 -53 -24z"/>
<path d="M8648 3976 c-9 -9 -55 -91 -101 -184 -47 -92 -104 -199 -127 -237
-58 -95 -214 -313 -288 -404 -34 -41 -58 -80 -55 -85 3 -6 2 -8 -2 -3 -5 4
-24 -7 -42 -25 -34 -33 -46 -60 -15 -37 9 7 6 1 -7 -14 -14 -15 -27 -25 -30
-22 -3 3 -59 -48 -125 -113 -67 -66 -141 -139 -166 -162 -25 -23 -13 -15 26
19 40 33 75 61 79 61 3 0 -26 -28 -66 -62 -39 -35 -77 -62 -84 -60 -7 1 -19
-5 -26 -15 -12 -15 -12 -16 1 -8 13 8 13 7 1 -8 -15 -18 -26 -23 -16 -7 12 20
-7 9 -68 -39 -34 -27 -102 -75 -152 -107 -108 -69 -203 -140 -228 -168 -10
-12 -15 -15 -11 -7 8 16 -84 -34 -124 -67 l-27 -22 38 21 c20 11 37 19 37 16
0 -9 -75 -49 -96 -52 -28 -3 -84 -37 -78 -47 3 -4 -2 -5 -10 -2 -9 4 -18 -1
-22 -10 -3 -9 -10 -13 -15 -10 -5 3 -9 0 -9 -6 0 -6 -3 -9 -7 -7 -11 6 -155
-58 -147 -65 3 -3 -1 -6 -8 -5 -34 1 -49 -4 -42 -15 4 -7 3 -8 -5 -4 -15 10
-123 -33 -115 -45 5 -8 -18 -13 -53 -12 -7 1 -13 -3 -13 -7 0 -5 -10 -6 -22
-3 -18 4 -20 2 -9 -5 11 -8 6 -12 -22 -17 -42 -8 -52 -27 -42 -85 6 -37 9 -40
38 -40 24 0 28 -3 19 -12 -38 -38 7 -78 89 -78 69 0 132 18 265 76 56 24 106
44 112 44 9 0 171 76 215 101 10 5 59 32 110 60 51 28 124 70 162 94 39 25
107 66 153 91 45 26 116 74 157 108 41 34 92 75 114 91 183 139 421 372 554
540 26 33 51 65 57 70 44 43 153 180 174 221 37 68 46 83 79 132 16 23 46 79
68 125 21 45 43 89 48 97 18 32 44 117 49 159 5 51 -5 61 -60 61 -36 0 -78
-29 -78 -54 0 -5 -2 -7 -5 -5 -2 3 18 56 45 119 55 127 58 140 33 140 -10 0
-34 3 -54 6 -25 4 -40 1 -51 -10z m-388 -910 c0 -2 -8 -10 -17 -17 -16 -13
-17 -12 -4 4 13 16 21 21 21 13z m-56 -68 c-44 -72 -93 -128 -241 -275 -95
-94 -191 -184 -213 -200 -21 -15 -83 -62 -137 -104 -119 -91 -205 -152 -298
-208 -38 -23 -92 -56 -120 -73 -27 -17 -86 -50 -130 -73 -44 -23 -105 -55
-135 -71 -111 -59 -299 -138 -307 -130 -2 2 25 16 59 31 319 140 584 302 963
586 126 94 406 350 490 447 68 79 85 96 69 70z m-244 -71 c0 -2 -10 -12 -22
-23 l-23 -19 19 23 c18 21 26 27 26 19z m-70 -70 c0 -2 -10 -12 -22 -23 l-23
-19 19 23 c18 21 26 27 26 19z m-610 -488 c-27 -22 -91 -57 -75 -42 14 14 89
63 95 63 3 0 -6 -9 -20 -21z m-150 -93 c0 -2 -12 -11 -27 -20 l-28 -17 24 20
c23 21 31 25 31 17z"/>
<path d="M5954 3731 c-67 -41 -166 -183 -148 -213 7 -11 -64 -80 -75 -73 -5 2
-11 -24 -15 -58 -8 -80 -9 -2074 -1 -2087 3 -5 29 -9 56 -8 47 1 50 2 43 22
-13 33 -17 2084 -4 2128 6 23 39 65 91 120 67 69 119 140 119 162 0 3 -8 10
-18 15 -14 7 -26 5 -48 -8z"/>
<path d="M7618 3723 c-16 -4 -22 -15 -19 -35 0 -5 -2 -7 -6 -6 -5 1 -21 -10
-38 -26 -16 -16 -24 -26 -17 -22 7 4 12 2 12 -6 0 -7 10 0 21 14 18 22 25 25
42 17 15 -9 24 -7 39 9 16 16 18 23 9 41 -12 22 -13 22 -43 14z"/>
<path d="M7510 3605 c-7 -8 -17 -12 -24 -8 -6 3 -8 3 -4 -2 4 -4 3 -14 -3 -22
-9 -10 -8 -13 3 -13 21 0 58 29 58 46 0 18 -14 18 -30 -1z"/>
<path d="M1782 3580 c-18 -4 -36 -11 -39 -14 -13 -12 45 -111 152 -261 333
-467 665 -785 1189 -1139 66 -45 146 -94 177 -109 31 -15 77 -43 102 -62 25
-19 49 -35 53 -35 3 0 39 -19 78 -43 94 -57 244 -128 337 -160 83 -29 175 -42
184 -27 3 6 0 10 -7 11 -7 0 -3 4 10 9 19 8 22 17 22 63 l0 54 -107 38 c-331
116 -682 292 -917 460 -441 315 -782 676 -1101 1168 -40 61 -53 66 -133 47z"/>
<path d="M6686 3281 c-44 -7 -55 -21 -31 -41 22 -18 150 -25 218 -10 89 18 73
33 -48 45 -33 4 -69 7 -80 9 -11 1 -38 0 -59 -3z"/>
<path d="M2563 3265 c-43 -18 -73 -69 -73 -122 0 -35 6 -48 35 -78 47 -46 79
-54 125 -28 55 32 83 79 75 128 -8 53 -29 84 -70 101 -42 17 -51 17 -92 -1z"/>
<path d="M2682 3045 c-19 -14 -20 -18 -8 -31 8 -8 26 -14 41 -14 23 0 26 4 23
27 -4 33 -24 39 -56 18z"/>
<path d="M6688 3047 c-56 -25 -90 -71 -102 -137 -5 -27 1 -49 24 -98 25 -53
36 -66 72 -82 127 -58 265 11 283 142 l7 47 67 10 c36 5 125 12 198 15 137 6
321 36 383 63 34 15 35 15 12 26 -23 11 -462 -13 -606 -33 -55 -8 -73 -7 -85
4 -9 8 -35 23 -58 35 -48 24 -149 28 -195 8z m146 -118 c32 -25 33 -57 4 -94
-18 -24 -26 -27 -60 -22 -51 7 -68 22 -68 61 0 69 68 99 124 55z"/>
<path d="M6303 3014 c-23 -26 -29 -45 -17 -57 11 -11 54 37 54 61 0 29 -10 28
-37 -4z"/>
<path d="M4826 2881 c-2 -3 -6 -343 -7 -754 -2 -412 -7 -751 -11 -754 -5 -2
-8 -15 -8 -28 0 -53 93 -73 105 -22 3 12 4 360 3 773 -2 592 -6 754 -16 766
-13 17 -60 30 -66 19z"/>
<path d="M1396 2777 c-19 -14 -32 -82 -22 -121 9 -37 66 -37 103 0 59 60 -14
170 -81 121z"/>
<path d="M6926 2735 c-8 -8 -20 -15 -26 -15 -6 0 -8 -5 -5 -10 4 -6 15 -8 24
-5 10 3 24 -1 31 -10 7 -9 29 -15 51 -15 35 0 39 3 39 25 0 18 -6 26 -25 30
-14 3 -36 7 -49 10 -14 3 -31 -1 -40 -10z"/>
<path d="M1812 2708 c-35 -35 15 -99 53 -68 30 25 12 80 -25 80 -9 0 -21 -5
-28 -12z"/>
<path d="M872 2683 c2 -9 9 -18 16 -21 18 -6 15 25 -4 32 -11 4 -14 1 -12 -11z"/>
<path d="M1760 2385 c0 -43 -1 -45 -29 -45 -38 0 -170 -56 -242 -103 -54 -34
-58 -40 -79 -109 -13 -40 -26 -89 -29 -108 -6 -35 -7 -35 -65 -38 -57 -3 -58
-4 -51 -29 3 -14 8 -38 12 -53 5 -26 7 -28 34 -18 43 15 53 6 68 -53 27 -107
75 -174 173 -240 32 -22 58 -47 58 -56 0 -13 3 -14 12 -5 13 13 75 16 102 6
12 -5 16 -21 16 -65 l0 -59 51 0 52 0 -6 48 c-3 26 -3 53 1 59 4 6 31 18 60
27 l53 15 17 -29 c19 -34 33 -37 53 -14 10 12 10 22 1 46 -10 27 -8 33 13 54
13 13 35 24 48 24 24 0 73 53 63 68 -7 11 52 177 61 175 5 -1 24 -4 44 -8 l36
-7 6 47 c8 57 3 67 -31 65 -54 -4 -59 -1 -65 35 -6 34 -56 145 -80 175 -7 9
-47 41 -91 73 -68 50 -84 57 -125 57 -65 0 -74 9 -70 64 l4 46 -37 0 -38 0 0
-45z m88 -130 c84 -20 131 -45 175 -94 43 -48 49 -93 17 -134 -24 -30 -65 -45
-135 -49 l-50 -3 0 102 c0 97 -1 102 -22 106 l-22 4 2 -196 c1 -108 -2 -211
-7 -230 l-8 -34 106 6 c141 9 169 21 186 80 17 61 6 111 -28 136 l-27 20 28
29 c15 16 30 45 34 66 8 51 20 34 33 -47 23 -147 -26 -260 -148 -343 -76 -53
-124 -67 -223 -68 -67 -1 -83 3 -143 33 -57 29 -106 73 -106 95 0 3 22 6 49 6
63 0 98 13 139 53 52 49 66 83 66 162 1 112 -40 161 -178 211 l-60 22 64 32
c108 55 150 60 258 35z m-268 -134 c39 -16 81 -38 92 -48 44 -38 61 -127 37
-190 -24 -64 -79 -96 -196 -117 -31 -5 -33 -4 -44 37 -12 44 -7 297 6 330 10
23 21 22 105 -12z m468 -208 c17 -23 16 -108 -2 -122 -8 -7 -55 -15 -105 -18
l-91 -6 0 86 0 87 93 -5 c70 -4 95 -9 105 -22z"/>
<path d="M6306 1722 c-15 -25 -18 -106 -6 -164 16 -71 17 -70 33 45 12 77 11
88 -4 108 -10 13 -19 18 -23 11z"/>
<path d="M2727 1696 c-3 -8 1 -22 8 -33 13 -17 15 -17 31 -1 14 14 15 20 4 32
-16 20 -36 20 -43 2z"/>
<path d="M7183 1479 c-27 -10 -30 -41 -7 -63 20 -21 30 -20 54 4 34 34 0 77
-47 59z"/>
<path d="M5145 1280 c3 -5 8 -10 11 -10 2 0 4 5 4 10 0 6 -5 10 -11 10 -5 0
-7 -4 -4 -10z"/>
</g>
</svg>
